# Blender v2.79 (sub 0) OBJ File: ''
# www.blender.org
mtllib xyz.mtl
o xyzCalibration_cube
v 0.000000 20.000000 -20.000000
v 0.000000 0.000000 -20.000000
v 0.000000 20.000000 0.000000
v 0.000000 0.000000 0.000000
v 5.040344 3.680854 -0.000000
v 6.652802 3.680854 -0.000000
v 12.535217 3.680854 -0.000000
v 9.553085 8.576234 0.000000
v 14.316742 3.680869 0.000000
v 20.000000 0.000000 0.000000
v 5.257626 15.985729 -0.000000
v 8.585594 10.067484 -0.000000
v 6.904907 15.991924 0.000000
v 9.535187 11.336412 0.000000
v 12.473900 15.991924 0.000000
v 10.307495 10.021875 0.000000
v 14.100838 15.956669 -0.000000
v 20.000000 20.000000 0.000000
v 6.322191 20.000000 -4.427241
v 6.322191 20.000000 -4.007070
v 14.112187 20.000000 -4.007070
v 14.112187 20.000000 -5.519688
v 6.406224 20.000000 -14.805497
v 6.406224 20.000000 -16.318121
v 20.000000 20.000000 -20.000000
v 13.927311 20.000000 -16.318121
v 13.927311 20.000000 -15.897944
v 8.616332 20.000000 -5.519688
v 11.616364 20.000000 -14.805497
v 20.000000 0.000000 -20.000000
v 20.000000 9.229810 -10.450918
v 20.000000 3.717465 -10.510590
v 20.000000 3.699273 -8.829998
v 20.000000 9.211618 -8.770327
v 20.000000 16.070559 -14.326719
v 20.000000 16.051821 -12.595710
v 20.000000 15.985423 -6.461553
v 20.000000 10.640724 -9.586849
v 20.000000 15.966685 -4.730542
v 14.100838 15.955086 -1.901568
v 10.307495 10.020296 -1.896627
v 14.316742 3.679295 -1.891348
v 12.535217 3.679280 -1.891348
v 9.553085 8.574656 -1.895423
v 6.652802 3.679280 -1.891348
v 5.040344 3.679280 -1.891348
v 8.585594 10.065905 -1.896665
v 5.257626 15.984146 -1.901592
v 6.904907 15.990341 -1.901597
v 9.535187 11.334833 -1.897721
v 12.473900 15.990341 -1.901597
v 13.927311 18.000000 -15.897944
v 8.616332 18.000000 -5.519688
v 13.927311 18.000000 -16.318121
v 6.406224 18.000000 -16.318121
v 6.406224 18.000000 -14.805497
v 11.616364 18.000000 -14.805497
v 6.322191 18.000000 -4.427241
v 6.322191 18.000000 -4.007070
v 14.112187 18.000000 -4.007070
v 14.112187 18.000000 -5.519688
v 18.062313 9.232793 -10.450058
v 18.071125 16.073528 -14.325864
v 18.071863 16.054789 -12.594854
v 18.064869 10.643703 -9.585991
v 18.074482 15.988387 -6.460699
v 18.075220 15.969648 -4.729689
v 18.063030 9.214601 -8.769467
v 18.054518 3.702268 -8.829135
v 18.053801 3.720460 -10.509727
vn -1.0000 0.0000 0.0000
vn 0.0000 0.0000 1.0000
vn 0.0000 1.0000 0.0000
vn 0.0000 0.0000 -1.0000
vn 0.0000 -1.0000 0.0000
vn 1.0000 0.0000 0.0000
vn -0.8426 0.5386 -0.0004
vn -0.8452 -0.5344 0.0004
vn -0.0000 1.0000 -0.0008
vn 0.8540 0.5202 -0.0004
vn -0.8603 0.5097 -0.0004
vn 0.8743 -0.4853 0.0004
vn 0.8716 0.4901 -0.0004
vn 0.0038 -1.0000 0.0008
vn -0.8707 -0.4919 0.0004
vn 0.8456 -0.5338 0.0004
vn -0.0217 -0.9998 0.0008
vn -0.8902 0.0000 -0.4556
vn 0.8908 0.0000 0.4544
vn 0.0011 0.4930 0.8701
vn -0.0015 -0.9999 -0.0108
vn -0.0011 -0.4860 -0.8740
vn -0.0004 -0.5048 0.8632
vn 0.0004 0.5133 -0.8582
vn -0.0004 0.0108 -0.9999
vn 0.0015 0.9999 0.0108
vn 0.0004 -0.0108 0.9999
vn -0.0000 0.0008 1.0000
vn 1.0000 -0.0015 -0.0004
usemtl None
s off
f 1//1 2//1 3//1
f 2//1 4//1 3//1
f 5//2 4//2 6//2
f 6//2 4//2 7//2
f 6//2 7//2 8//2
f 9//2 7//2 10//2
f 7//2 4//2 10//2
f 3//2 4//2 11//2
f 5//2 12//2 11//2
f 4//2 5//2 11//2
f 3//2 11//2 13//2
f 13//2 14//2 15//2
f 3//2 13//2 15//2
f 16//2 9//2 17//2
f 9//2 10//2 17//2
f 15//2 17//2 18//2
f 17//2 10//2 18//2
f 3//2 15//2 18//2
f 19//3 3//3 20//3
f 18//3 21//3 20//3
f 18//3 22//3 21//3
f 18//3 20//3 3//3
f 23//3 1//3 3//3
f 23//3 3//3 19//3
f 24//3 1//3 23//3
f 25//3 26//3 27//3
f 25//3 22//3 18//3
f 25//3 27//3 22//3
f 25//3 1//3 24//3
f 25//3 24//3 26//3
f 27//3 28//3 22//3
f 19//3 29//3 23//3
f 25//4 30//4 2//4
f 25//4 2//4 1//4
f 4//5 2//5 30//5
f 10//5 4//5 30//5
f 31//6 32//6 30//6
f 10//6 32//6 33//6
f 10//6 30//6 32//6
f 34//6 10//6 33//6
f 35//6 30//6 25//6
f 35//6 31//6 30//6
f 36//6 35//6 25//6
f 37//6 38//6 36//6
f 39//6 10//6 34//6
f 18//6 39//6 37//6
f 18//6 37//6 36//6
f 18//6 36//6 25//6
f 18//6 10//6 39//6
f 17//7 40//7 16//7
f 16//7 40//7 41//7
f 16//8 41//8 9//8
f 9//8 41//8 42//8
f 7//9 9//9 42//9
f 7//9 42//9 43//9
f 8//10 7//10 44//10
f 7//10 43//10 44//10
f 8//11 44//11 6//11
f 6//11 44//11 45//11
f 5//9 6//9 46//9
f 6//9 45//9 46//9
f 12//12 5//12 47//12
f 5//12 46//12 47//12
f 11//13 12//13 48//13
f 12//13 47//13 48//13
f 13//14 11//14 49//14
f 11//14 48//14 49//14
f 13//15 49//15 14//15
f 14//15 49//15 50//15
f 15//16 14//16 51//16
f 14//16 50//16 51//16
f 17//17 15//17 51//17
f 17//17 51//17 40//17
f 27//18 52//18 28//18
f 28//18 52//18 53//18
f 27//1 26//1 54//1
f 27//1 54//1 52//1
f 24//2 55//2 26//2
f 26//2 55//2 54//2
f 23//6 56//6 55//6
f 24//6 23//6 55//6
f 29//4 57//4 56//4
f 23//4 29//4 56//4
f 19//19 58//19 29//19
f 29//19 58//19 57//19
f 19//6 20//6 59//6
f 19//6 59//6 58//6
f 21//4 60//4 59//4
f 20//4 21//4 59//4
f 22//1 61//1 60//1
f 21//1 22//1 60//1
f 28//2 53//2 22//2
f 22//2 53//2 61//2
f 31//20 35//20 62//20
f 35//20 63//20 62//20
f 35//21 36//21 63//21
f 36//21 64//21 63//21
f 38//22 65//22 36//22
f 36//22 65//22 64//22
f 38//23 37//23 65//23
f 37//23 66//23 65//23
f 37//21 39//21 66//21
f 39//21 67//21 66//21
f 34//24 68//24 39//24
f 39//24 68//24 67//24
f 33//25 69//25 34//25
f 34//25 69//25 68//25
f 33//26 32//26 70//26
f 33//26 70//26 69//26
f 32//27 31//27 70//27
f 31//27 62//27 70//27
f 43//28 42//28 41//28
f 44//28 43//28 41//28
f 45//28 44//28 47//28
f 46//28 45//28 47//28
f 44//28 41//28 47//28
f 47//28 41//28 50//28
f 41//28 40//28 51//28
f 50//28 41//28 51//28
f 47//28 50//28 49//28
f 47//28 49//28 48//28
f 53//3 58//3 59//3
f 60//3 53//3 59//3
f 61//3 53//3 60//3
f 57//3 55//3 56//3
f 54//3 55//3 57//3
f 54//3 57//3 52//3
f 57//3 58//3 53//3
f 57//3 53//3 52//3
f 62//29 69//29 70//29
f 62//29 68//29 69//29
f 65//29 68//29 62//29
f 66//29 67//29 68//29
f 66//29 68//29 65//29
f 64//29 65//29 62//29
f 63//29 64//29 62//29
